<?xml version="1.0" standalone="no"?><!DOCTYPE svg PUBLIC "-//W3C//DTD SVG 1.1//EN" "http://www.w3.org/Graphics/SVG/1.1/DTD/svg11.dtd"><svg t="1653970260926" class="icon" viewBox="0 0 1024 1024" version="1.1" xmlns="http://www.w3.org/2000/svg" p-id="1290" xmlns:xlink="http://www.w3.org/1999/xlink" width="100" height="100"><defs><style type="text/css">@font-face { font-family: feedback-iconfont; src: url("//at.alicdn.com/t/font_1031158_u69w8yhxdu.woff2?t=1630033759944") format("woff2"), url("//at.alicdn.com/t/font_1031158_u69w8yhxdu.woff?t=1630033759944") format("woff"), url("//at.alicdn.com/t/font_1031158_u69w8yhxdu.ttf?t=1630033759944") format("truetype"); }
</style></defs><path d="M588.288 661.504h-81.92c-16.896 0-30.72-13.824-30.72-30.72s13.824-30.72 30.72-30.72h81.92c16.896 0 30.72 13.824 30.72 30.72s-13.824 30.72-30.72 30.72zM586.752 758.784h-81.92c-16.896 0-30.72-13.824-30.72-30.72s13.824-30.72 30.72-30.72h81.92c16.896 0 30.72 13.824 30.72 30.72s-13.824 30.72-30.72 30.72z" fill="#FF7879" p-id="1291"></path><path d="M148.48 926.72c-12.288 0-24.064-7.168-28.672-19.456-6.144-15.872 1.536-33.792 17.408-39.936l131.584-51.712c25.6-10.24 53.76-11.264 80.384-3.072l145.92 45.568c11.264 3.584 23.552 3.584 34.816 0l148.992-46.08c26.112-8.192 54.784-6.656 80.384 3.584l128 51.712c15.872 6.144 23.552 24.064 16.896 39.936-6.144 15.872-24.064 23.552-39.936 16.896l-128-51.712c-12.288-5.12-26.624-5.632-39.424-1.536l-148.992 46.08c-23.552 7.168-48.128 7.168-71.168 0l-145.92-45.568c-12.8-4.096-26.624-3.584-39.424 1.536l-131.584 51.712c-3.584 1.536-7.68 2.048-11.264 2.048z" fill="#4B81EE" p-id="1292"></path><path d="M364.032 876.032c-15.36 0-28.672-11.264-30.72-27.136-2.048-16.896 9.728-31.744 26.624-34.304 2.048-0.512 37.376-6.656 68.096-48.64 32.256-44.544 63.488-136.192 31.744-322.56-3.072-16.896 8.192-32.768 25.088-35.328 16.896-3.072 32.768 8.192 35.328 25.088 29.184 168.448 13.824 293.376-44.544 371.712-46.08 61.952-101.888 70.144-108.544 70.656-0.512 0.512-1.536 0.512-3.072 0.512zM629.248 890.88l-29.696-53.76s-0.512 0-1.536 1.024c0.512-0.512 65.024-50.176 34.304-306.176-2.048-16.896 9.728-32.256 26.624-34.304 16.896-2.048 32.256 10.24 34.304 26.624 35.84 295.936-46.592 357.376-64 366.592z" fill="#4B81EE" p-id="1293"></path><path d="M525.312 360.96c-75.776 102.912-148.48 180.736-217.088 224.256-9.728 9.728-26.112 4.096-27.648-9.728C271.872 475.648 266.24 195.584 512 285.184c0 0 294.912-96.768 248.32 281.088 0 0.512-149.504-20.992-235.008-205.312z" fill="#DBE6FC" p-id="1294"></path><path d="M296.96 621.056c-5.12 0-10.752-1.024-15.872-2.56-17.408-6.144-29.184-21.504-31.232-39.936-8.192-87.04-8.192-242.688 79.36-310.272 46.08-35.328 108.032-40.448 183.808-14.848 32.768-8.704 133.12-27.648 206.336 32.768 64 52.736 88.064 147.968 71.168 284.672-1.024 8.192-5.12 15.872-11.776 20.48s-14.848 7.168-23.04 6.144c-6.144-1.024-142.336-22.016-235.008-179.2-70.144 89.6-133.632 152.576-193.536 191.488-8.704 7.168-18.944 11.264-30.208 11.264z m-10.752-57.344z m139.776-265.216c-23.552 0-43.52 6.144-59.392 17.92-58.88 45.056-60.416 167.424-57.344 230.4 56.832-40.96 121.344-109.568 190.976-204.288 6.656-8.704 16.896-13.312 27.648-12.288 10.752 1.024 19.968 7.68 24.576 17.408 54.272 117.76 135.68 162.816 179.712 179.2 6.656-94.72-10.752-159.744-52.736-194.048-60.416-49.664-158.208-19.456-158.72-18.944-6.656 2.048-13.824 2.048-19.968-0.512-27.648-9.216-52.736-14.848-74.752-14.848z" fill="#4B81EE" p-id="1295"></path><path d="M170.496 481.28c-15.36 0-28.672-11.776-30.72-27.648-1.024-7.68-17.92-189.952 112.64-262.656 132.608-74.24 283.648 63.488 289.792 69.632 12.288 11.776 13.312 30.72 1.536 43.52-11.776 12.288-30.72 13.312-43.52 1.536-1.024-1.024-124.928-113.152-218.112-60.928-67.584 37.888-80.384 123.392-81.92 170.496 23.552-4.608 48.128-11.264 57.856-19.456 13.312-10.752 32.256-8.704 43.008 4.096 10.752 13.312 8.704 32.256-4.096 43.008-33.792 27.648-109.056 36.352-123.904 37.888-0.512 0-1.536 0.512-2.56 0.512z" fill="#4B81EE" p-id="1296"></path><path d="M843.264 471.04c-29.696 0-67.584-8.192-85.504-12.288-16.384-4.096-26.624-20.48-22.528-36.864 4.096-16.384 20.48-26.624 36.864-22.528 20.48 5.12 43.008 8.704 58.88 10.24 0-52.224-11.264-137.728-62.976-162.304-83.968-39.424-198.144-7.168-219.648 34.816-7.68 14.848-26.112 20.992-41.472 13.312-14.848-7.68-20.992-26.112-13.312-41.472 40.96-79.36 195.584-111.616 300.544-62.464 113.152 53.248 97.792 241.664 97.28 249.856-1.024 12.288-9.216 22.528-20.992 26.624-7.168 2.56-16.384 3.072-27.136 3.072z" fill="#4B81EE" p-id="1297"></path></svg>